<svg id="Capa_1" enable-background="new 0 0 512 512" height="512" viewBox="0 0 512 512" width="512" xmlns="http://www.w3.org/2000/svg"><g><g><path d="m374.397 364.071 10.25 5.25 18.5 26.337 18.75 11.663 14.75 3 6.145-2.646-19.379-55.342c-4.027-11.502-13.25-20.426-24.879-24.072l-60.229-18.885-6.491 6.528v48.167z" fill="#6d81d5"/><path d="m69.766 410.321h16.381l24.25-13.465 23-32.785h47.083v-46.641l-6.763-8.053-60.229 18.885c-11.628 3.646-20.851 12.57-24.879 24.072l-18.844 53.814v4.173z" fill="#6d81d5"/><path d="m442.257 406.148c-1.39.588-2.922.93-4.561.93-16.779 0-32.281-8.962-40.653-23.504l-7.698-13.369c-3.683-6.397-10.503-10.34-17.885-10.34h-33.155l-6.491-8.834v33.207l6.491 8.835h33.155c7.382 0 14.201 3.943 17.885 10.34l7.698 13.369c8.372 14.542 23.874 23.504 40.653 23.504 8.071 0 13.724-7.97 11.057-15.587z" fill="#5169cd"/><path d="m140.563 359.865c-7.382 0-14.202 3.943-17.885 10.34l-7.698 13.369c-8.372 14.542-23.874 23.504-40.653 23.504-1.639 0-3.171-.343-4.562-.93l-6.496 18.55c-2.667 7.617 2.986 15.587 11.057 15.587 16.779 0 32.281-8.962 40.653-23.504l7.698-13.369c3.683-6.397 10.503-10.34 17.885-10.34h33.154l6.763-6.438v-33.207l-6.763 6.438z" fill="#5169cd"/><path d="m251.522 421.405h42.836v54.333h-42.836z" fill="#ffb640"/><path d="m217.664 421.405h35v54.333h-35z" fill="#ffa90f"/><path d="m331.814 154.905h-125.784l-.133 1.917v255.25l5.25 9.333 7.316 4.751h101.035c10.386 0 18.807-8.42 18.807-18.807v-246.286z" fill="#f9f6f6"/><path d="m208.717 407.349v-246.286l6.763-6.158h-35l-6.763 6.158v246.286c0 10.387 8.42 18.807 18.807 18.807h35c-10.387 0-18.807-8.42-18.807-18.807z" fill="#e2d8ec"/><path d="m262.814 57.071-24.5 15.667-18.5 27.5-12.5 36.167-1.417 20.417v4.241h132.408c0-51.411-27.752-94.367-64.794-104.824z" fill="#fb5fa7"/><path d="m273.511 56.238c-5.64-1.592-11.494-2.439-17.5-2.439-45.45 0-82.294 48.023-82.294 107.263h35c0-51.411 27.752-94.366 64.794-104.824z" fill="#fb4297"/><path d="m296.893 469.423h-53.118l-7.753 3.023-5.625 10.375 1 10.5 6.875 8.625 3.374 2.554h55.247c9.646 0 17.538-7.892 17.538-17.538 0-9.646-7.892-17.539-17.538-17.539z" fill="#ffd086"/><path d="m232.591 486.962c0-9.646 7.892-17.538 17.538-17.538h-35c-9.646 0-17.538 7.892-17.538 17.538 0 9.646 7.892 17.538 17.538 17.538h35c-9.646 0-17.538-7.892-17.538-17.538z" fill="#ffb640"/><path d="m271.894 218.434h-5.997l-15.25 12.387-6.327 18.75v18l13.327 17.5 5.836 3.75 8.411 1.432c13.771-6.1 23.383-19.878 23.383-35.91 0-16.031-9.612-29.809-23.383-35.909z" fill="#8dcafc"/><path d="m248.511 254.343c0-16.031 9.612-29.809 23.383-35.909-4.858-2.152-10.228-3.356-15.883-3.356-21.686 0-39.266 17.58-39.266 39.266s17.58 39.266 39.266 39.266c5.655 0 11.025-1.205 15.883-3.356-13.771-6.101-23.383-19.879-23.383-35.911z" fill="#31a7fb"/></g><g><path d="m256 0c-4.143 0-7.5 3.358-7.5 7.5v39.195c-21.514 2.24-41.403 14.094-56.642 33.956-16.542 21.562-25.652 50.119-25.652 80.412v142.806l-54.973 17.237c-13.819 4.333-24.927 15.081-29.713 28.75l-25.34 72.364c-4.367 12.477 4.912 25.566 18.136 25.566 19.403 0 37.472-10.446 47.153-27.261l7.698-13.371c2.337-4.06 6.699-6.582 11.385-6.582h25.654v6.776c0 14.505 11.801 26.307 26.307 26.307h17.641v28.764c-11.436 2.31-20.073 12.436-20.073 24.542 0 13.806 11.232 25.038 25.038 25.038h81.764c13.806 0 25.038-11.232 25.038-25.038 0-12.107-8.638-22.232-20.073-24.542v-28.764h17.641c14.506 0 26.307-11.801 26.307-26.307v-6.776h25.654c4.685 0 9.047 2.522 11.385 6.582l7.697 13.37c9.682 16.815 27.75 27.261 47.153 27.261 13.219 0 22.506-13.085 18.136-25.566l-8.472-24.192c-1.369-3.909-5.65-5.97-9.557-4.6-3.909 1.369-5.969 5.648-4.6 9.558l8.471 24.191c.962 2.745-1.066 5.609-3.979 5.609-14.055 0-27.142-7.566-34.153-19.746l-7.698-13.37c-5.007-8.695-14.351-14.097-24.384-14.097h-25.654v-65.984l50.484 15.83c9.322 2.923 16.815 10.173 20.044 19.394l5.294 15.12c1.369 3.909 5.645 5.968 9.558 4.6 3.909-1.369 5.969-5.647 4.601-9.557l-5.294-15.12c-4.786-13.669-15.895-24.417-29.714-28.75l-54.973-17.237v-142.806c0-30.292-9.11-58.85-25.653-80.412-15.238-19.862-35.128-31.715-56.641-33.955v-39.195c-.001-4.142-3.358-7.5-7.501-7.5zm-89.794 385.573h-25.654c-10.035 0-19.379 5.402-24.385 14.097l-7.698 13.37c-7.012 12.18-20.099 19.746-34.153 19.746-2.897 0-4.945-2.848-3.978-5.609h-.001l25.34-72.364c3.229-9.221 10.723-16.471 20.045-19.394l50.484-15.83zm140.714 101.389c0 5.535-4.503 10.038-10.038 10.038h-81.764c-5.535 0-10.038-4.503-10.038-10.038s4.503-10.039 10.038-10.039h81.764c5.535 0 10.038 4.504 10.038 10.039zm-50.92-39.176c4.143 0 7.5-3.358 7.5-7.5v-5.668h23.347v27.306h-61.693v-27.306h23.346v5.668c0 4.142 3.357 7.5 7.5 7.5zm74.794-40.437c0 6.234-5.072 11.307-11.307 11.307h-55.987v-85.672c0-4.142-3.357-7.5-7.5-7.5s-7.5 3.358-7.5 7.5v85.672h-55.987c-6.234 0-11.307-5.072-11.307-11.307 0-3.806 0-141.655 0-145.506h28.637c3.6 22.233 22.923 39.266 46.157 39.266s42.556-17.033 46.156-39.266h28.637c.001 9.449.001 137.798.001 145.506zm0-160.506h-28.629c-2.36-14.752-11.609-27.523-25.317-34.361-3.709-1.85-8.21-.343-10.059 3.363-1.85 3.707-.344 8.21 3.363 10.06 10.864 5.42 17.613 16.317 17.613 28.438 0 17.516-14.25 31.766-31.766 31.766-17.517 0-31.767-14.25-31.767-31.766 0-12.122 6.75-23.019 17.614-28.438 3.707-1.849 5.213-6.353 3.363-10.06-1.848-3.706-6.354-5.211-10.059-3.363-13.709 6.839-22.958 19.609-25.318 34.361h-28.628v-78.281h149.588v78.281zm-.209-93.281h-149.17c2.883-51.522 35.233-92.263 74.585-92.263s71.702 40.742 74.585 92.263z"/></g></g></svg>